<svg width="144" height="144" viewBox="0 0 144 144" fill="none" xmlns="http://www.w3.org/2000/svg">
<path d="M47.5 53.5L50.5 66L53.0001 65C53.1292 76.8148 53.1292 87.859 53.0001 99.6738H92.7478C92.6176 87.859 92.6176 76.8148 92.7478 65L95.2684 66L98.293 53.5L91.2356 48.5L79.5628 44C79.4935 48.199 77.5705 50.2797 72.7926 50.2797C68.0536 50.2797 66.1466 48.199 66.0778 44L54.5 48.5L47.5 53.5Z" fill="white" stroke="#231F20" stroke-miterlimit="22.926"/>
<path d="M30.5 79L25 72C29 69.5 49.5 50.5 54.5 48.5C56.1151 54.4673 55.895 59.0367 53 65L30.5 79Z" fill="white" stroke="#231F20" stroke-miterlimit="22.926"/>
<path d="M115.331 79L120.861 72C116.839 69.5 96.2252 50.5 91.1974 48.5C89.5734 54.4673 89.7947 59.0367 92.7058 65L115.331 79Z" fill="white" stroke="#231F20" stroke-miterlimit="22.926"/>
<path d="M78.6943 43.5128L79.9468 44.1354C79.9473 53 65.0001 52.5 65.046 44.1354L66.2801 43.5M78.6943 43.5128C78.9706 47.8835 75.0001 49 72.5001 49C70.0001 49 66.1757 47.8835 66.2801 43.5M78.6943 43.5128C78.7004 43.9749 78.6415 44.668 78.6108 45.1108C75.2156 47.2801 69.8245 47.2736 66.417 45.1108C66.3741 44.6551 66.2801 43.9813 66.2801 43.5M78.6943 43.5128C74.8878 46.0351 70.0743 46.0287 66.2801 43.5" stroke="#222221" stroke-linecap="round"/>
</svg>
