<svg viewBox="0 0 144 144" fill="none" xmlns="http://www.w3.org/2000/svg">
<path d="M94.4767 68.9223L92.5046 99.6853H53.0649C52.4076 89.431 51.7501 79.1765 51.0928 68.9223C53.6933 64.1164 53.9563 58.3924 51.8817 52.752L65.2912 48.2031C71.9026 50.2866 71.6617 50.8982 78.1967 48.8214L80.2312 48.2031L93.6878 52.752C91.6134 58.3924 91.8764 64.1164 94.4767 68.9223Z" fill="white"/>
<path d="M94.4767 68.9223L92.5046 99.6853H53.0649C52.4076 89.431 51.7501 79.1765 51.0928 68.9223C53.6933 64.1164 53.9563 58.3924 51.8817 52.752L65.2912 48.2031C71.9026 50.2866 71.6617 50.8982 78.1967 48.8214L80.2312 48.2031L93.6878 52.752C91.6134 58.3924 91.8764 64.1164 94.4767 68.9223Z" fill="white" stroke="#231F20" stroke-miterlimit="22.926"/>
<path d="M54.643 103.629H90.9277C91.654 102.515 92.1797 101.2 92.5052 99.6853H53.0654C53.391 101.2 53.9167 102.515 54.643 103.629Z" fill="white"/>
<path d="M54.643 103.629H90.9277C91.654 102.515 92.1797 101.2 92.5052 99.6853H53.0654C53.391 101.2 53.9167 102.515 54.643 103.629Z" fill="white" stroke="#231F20" stroke-miterlimit="22.926"/>
<path d="M12.7571 76.4649L16.9635 84.0539L12.4416 85.6585L9 79.4491L12.7571 76.4649Z" fill="white"/>
<path d="M12.7571 76.4649L16.9635 84.0539L12.4416 85.6585L9 79.4491L12.7571 76.4649Z" fill="white" stroke="#231F20" stroke-miterlimit="22.926"/>
<path d="M16.9595 84.0463L51.0936 68.9222C53.694 64.1163 53.9569 58.3923 51.8825 52.7519L12.7573 76.4647L16.9595 84.0463Z" fill="white"/>
<path d="M16.9595 84.0463L51.0936 68.9222C53.694 64.1163 53.9569 58.3923 51.8825 52.7519L12.7573 76.4647L16.9595 84.0463Z" fill="white" stroke="#231F20" stroke-miterlimit="22.926"/>
<path d="M132.814 76.4649L128.607 84.0539L133.129 85.6585L136.571 79.4491L132.814 76.4649Z" fill="white"/>
<path d="M132.814 76.4649L128.607 84.0539L133.129 85.6585L136.571 79.4491L132.814 76.4649Z" fill="white" stroke="#231F20" stroke-miterlimit="22.926"/>
<path d="M128.611 84.0463L94.4773 68.9222C91.8769 64.1163 91.614 58.3923 93.6884 52.7519L132.814 76.4647L128.611 84.0463Z" fill="white"/>
<path d="M128.611 84.0463L94.4773 68.9222C91.8769 64.1163 91.614 58.3923 93.6884 52.7519L132.814 76.4647L128.611 84.0463Z" fill="white" stroke="#231F20" stroke-miterlimit="22.926"/>
<path fill-rule="evenodd" clip-rule="evenodd" d="M78.8531 49.5131C76.7052 50.1435 74.6962 50.4373 72.7829 50.4378C70.8023 50.4573 68.6293 50.0635 66.7175 49.504C66.5663 49.1387 66.4781 48.752 66.4357 48.3234L66.4064 48.0303C67.0425 48.2166 67.6815 48.3946 68.3235 48.5521C69.7764 48.8841 71.2532 49.1397 72.7175 49.1542C74.2131 49.1628 75.765 48.886 77.2266 48.5521C77.8736 48.3936 78.5174 48.2137 79.158 48.0257L79.1632 48.0362L79.1363 48.317C79.0954 48.7375 79.0161 49.139 78.8531 49.5131ZM66.4357 48.3234C66.7198 51.1908 69.5865 53.0798 72.7858 53.0798C75.9851 53.0798 78.8591 51.1884 79.1363 48.317L79.1668 48L80.2791 48.1221L80.2474 48.4462C79.8947 52.0363 76.59 54.3104 72.7458 54.3104C68.9009 54.3104 65.6777 52.0368 65.3244 48.4474L65.292 48.12L66.4045 48.0107L66.4357 48.3234Z" fill="white"/>
<path d="M78.8531 49.5131C76.7052 50.1435 74.6962 50.4373 72.7829 50.4378C70.8023 50.4573 68.6293 50.0635 66.7175 49.504C66.5663 49.1387 66.4781 48.752 66.4357 48.3234L66.4064 48.0303C67.0425 48.2166 67.6815 48.3946 68.3235 48.5521C69.7764 48.8841 71.2532 49.1397 72.7175 49.1542C74.2131 49.1628 75.765 48.886 77.2266 48.5521C77.8736 48.3936 78.5174 48.2137 79.158 48.0257L79.1632 48.0362L79.1363 48.317C79.0954 48.7375 79.0161 49.139 78.8531 49.5131ZM66.4357 48.3234C66.7198 51.1908 69.5865 53.0798 72.7858 53.0798C75.9851 53.0798 78.8591 51.1884 79.1363 48.317L79.1668 48L80.2791 48.1221L80.2474 48.4462C79.8947 52.0363 76.59 54.3104 72.7458 54.3104C68.9009 54.3104 65.6777 52.0368 65.3244 48.4474L65.292 48.12L66.4045 48.0107L66.4357 48.3234Z" fill="white"/>
<path d="M66.4357 48.3234C66.4781 48.752 66.5663 49.1387 66.7175 49.504C68.6293 50.0635 70.8023 50.4573 72.7829 50.4378C74.6962 50.4373 76.7052 50.1435 78.8531 49.5131C79.0161 49.139 79.0954 48.7375 79.1363 48.317M66.4357 48.3234L66.4064 48.0303C67.0425 48.2166 67.6815 48.3946 68.3235 48.5521C69.7764 48.8841 71.2532 49.1397 72.7175 49.1542C74.2131 49.1628 75.765 48.886 77.2266 48.5521C77.8736 48.3936 78.5174 48.2137 79.158 48.0257L79.1632 48.0362L79.1363 48.317M66.4357 48.3234C66.7198 51.1908 69.5865 53.0798 72.7858 53.0798C75.9851 53.0798 78.8591 51.1884 79.1363 48.317M66.4357 48.3234L66.4045 48.0107L65.292 48.12L65.3244 48.4474C65.6777 52.0368 68.9009 54.3104 72.7458 54.3104C76.59 54.3104 79.8947 52.0363 80.2474 48.4462L80.2791 48.1221L79.1668 48L79.1363 48.317" stroke="#231F20" stroke-miterlimit="22.926"/>
<path d="M78.8531 49.5131C76.7052 50.1435 74.6962 50.4373 72.7829 50.4378C70.8023 50.4573 68.6293 50.0635 66.7175 49.504C66.5663 49.1387 66.4781 48.752 66.4357 48.3234L66.4064 48.0303C67.0425 48.2166 67.6815 48.3946 68.3235 48.5521C69.7764 48.8841 71.2532 49.1397 72.7175 49.1542C74.2131 49.1628 75.765 48.886 77.2266 48.5521C77.8736 48.3936 78.5174 48.2137 79.158 48.0257L79.1632 48.0362L79.1363 48.317C79.0954 48.7375 79.0161 49.139 78.8531 49.5131ZM66.4357 48.3234C66.7198 51.1908 69.5865 53.0798 72.7858 53.0798C75.9851 53.0798 78.8591 51.1884 79.1363 48.317L79.1668 48L80.2791 48.1221L80.2474 48.4462C79.8947 52.0363 76.59 54.3104 72.7458 54.3104C68.9009 54.3104 65.6777 52.0368 65.3244 48.4474L65.292 48.12L66.4045 48.0107L66.4357 48.3234Z" fill="white"/>
<path d="M78.8531 49.5131C76.7052 50.1435 74.6962 50.4373 72.7829 50.4378C70.8023 50.4573 68.6293 50.0635 66.7175 49.504C66.5663 49.1387 66.4781 48.752 66.4357 48.3234L66.4064 48.0303C67.0425 48.2166 67.6815 48.3946 68.3235 48.5521C69.7764 48.8841 71.2532 49.1397 72.7175 49.1542C74.2131 49.1628 75.765 48.886 77.2266 48.5521C77.8736 48.3936 78.5174 48.2137 79.158 48.0257L79.1632 48.0362L79.1363 48.317C79.0954 48.7375 79.0161 49.139 78.8531 49.5131ZM66.4357 48.3234C66.7198 51.1908 69.5865 53.0798 72.7858 53.0798C75.9851 53.0798 78.8591 51.1884 79.1363 48.317L79.1668 48L80.2791 48.1221L80.2474 48.4462C79.8947 52.0363 76.59 54.3104 72.7458 54.3104C68.9009 54.3104 65.6777 52.0368 65.3244 48.4474L65.292 48.12L66.4045 48.0107L66.4357 48.3234Z" fill="white"/>
<path d="M66.4357 48.3234C66.4781 48.752 66.5663 49.1387 66.7175 49.504C68.6293 50.0635 70.8023 50.4573 72.7829 50.4378C74.6962 50.4373 76.7052 50.1435 78.8531 49.5131C79.0161 49.139 79.0954 48.7375 79.1363 48.317M66.4357 48.3234L66.4064 48.0303C67.0425 48.2166 67.6815 48.3946 68.3235 48.5521C69.7764 48.8841 71.2532 49.1397 72.7175 49.1542C74.2131 49.1628 75.765 48.886 77.2266 48.5521C77.8736 48.3936 78.5174 48.2137 79.158 48.0257L79.1632 48.0362L79.1363 48.317M66.4357 48.3234C66.7198 51.1908 69.5865 53.0798 72.7858 53.0798C75.9851 53.0798 78.8591 51.1884 79.1363 48.317M66.4357 48.3234L66.4045 48.0107L65.292 48.12L65.3244 48.4474C65.6777 52.0368 68.9009 54.3104 72.7458 54.3104C76.59 54.3104 79.8947 52.0363 80.2474 48.4462L80.2791 48.1221L79.1668 48L79.1363 48.317" stroke="#231F20" stroke-miterlimit="22.926"/>
</svg>
