<svg width="144" height="144" viewBox="0 0 144 144" fill="none" xmlns="http://www.w3.org/2000/svg">
<path d="M53.643 103.629H89.9277C90.654 102.515 91.1797 101.2 91.5052 99.6854H52.0654C52.391 101.2 52.9167 102.515 53.643 103.629Z" fill="white" stroke="#231F20" stroke-miterlimit="22.926"/>
<path d="M12.7571 76.4648L16.9635 84.0538L12.4416 85.6584L9 79.449L12.7571 76.4648Z" fill="white" stroke="#231F20" stroke-miterlimit="22.926"/>
<path d="M13.569 78.6666L10 80.6669M14.5345 80.3333L10.9655 82.3336M15.5 82L11.931 84.0003" stroke="#231F20"/>
<path d="M131 76.5L126.794 84.089L131.316 85.6936L134.757 79.4842L131 76.5Z" fill="white" stroke="#231F20" stroke-miterlimit="22.926"/>
<path d="M130.147 78.6664L133.716 80.6667M129.182 80.3331L132.751 82.3334M128.216 81.9998L131.785 84.0001" stroke="#231F20"/>
<path d="M55 100V104" stroke="#231F20"/>
<path d="M57.3928 100V104" stroke="#231F20"/>
<path d="M59.7859 100V104" stroke="#231F20"/>
<path d="M62.1787 100V104" stroke="#231F20"/>
<path d="M64.5713 100V104" stroke="#231F20"/>
<path d="M66.9641 100V104" stroke="#231F20"/>
<path d="M69.3572 100V104" stroke="#231F20"/>
<path d="M71.75 100V104" stroke="#231F20"/>
<path d="M74.1428 100V104" stroke="#231F20"/>
<path d="M76.5359 100V104" stroke="#231F20"/>
<path d="M78.9287 100V104" stroke="#231F20"/>
<path d="M81.3213 100V104" stroke="#231F20"/>
<path d="M83.7141 100V104" stroke="#231F20"/>
<path d="M86.1072 100V104" stroke="#231F20"/>
<path d="M88.5 100V104" stroke="#231F20"/>
</svg>
