<svg width="144" height="144" viewBox="0 0 144 144" fill="none" xmlns="http://www.w3.org/2000/svg">
<path fill-rule="evenodd" clip-rule="evenodd" d="M79.9224 44.5C79.9229 53.3646 64.9757 52.8646 65.0216 44.5L66.2558 43.5127C70.7614 45.5182 74.2329 45.6097 78.67 43.5255L79.9224 44.5ZM66.5759 45.4429C70.0693 47.4503 75.105 47.3319 78.5002 45.1626C77.7076 48.2545 74.6588 49 72.5003 48.9999C70.4233 48.9999 68.0002 48.4999 66.5759 45.4429Z" fill="white"/>
<path d="M78.67 43.5255L79.9224 44.5C79.9229 53.3646 64.9757 52.8646 65.0216 44.5L66.2558 43.5127M78.67 43.5255C74.2329 45.6097 70.7614 45.5182 66.2558 43.5127M78.67 43.5255C78.67 44.1384 78.6256 44.6735 78.5002 45.1626M66.2558 43.5127C66.2558 44.2486 66.3571 44.7403 66.5759 45.4429M72.5003 48.9999C74.6665 49 77.7208 48.282 78.5002 45.1626M72.5003 48.9999C74.6588 49 77.7076 48.2545 78.5002 45.1626M72.5003 48.9999C70.4233 48.9999 68.0002 48.4999 66.5759 45.4429M78.5002 45.1626C75.105 47.3319 70.0693 47.4503 66.5759 45.4429" stroke="#222221" stroke-linecap="round" stroke-linejoin="round"/>
<path d="M66.3223 43.9347V47.9347M78.6781 44V48M67.6455 44.2286V45.698M77.3549 44.2939V45.7633M69.2002 45V46.4694M75.8002 45.0653V46.5347M71.2002 45V46.4694M73.8002 45.0653L73.8002 46.5347M67.6455 47.4612V48.9306M77.3549 47.5265L77.3549 48.9959M69.2002 48V50M75.8002 48.0653L75.8002 50.0653M71.2002 48.5V50.5M73.8002 48.5653L73.8002 50.5653" stroke="#222221" stroke-width="0.4"/>
</svg>
