<svg viewBox="0 0 144 144" fill="none" xmlns="http://www.w3.org/2000/svg">
<path fill-rule="evenodd" clip-rule="evenodd" d="M55.9186 53.704C55.8939 53.6005 55.8684 53.4973 55.8422 53.3944L55.8413 53.3913C55.8148 53.2879 55.7874 53.1849 55.7593 53.0824L55.7588 53.0806C55.7305 52.9776 55.7012 52.8751 55.6713 52.7728L55.671 52.7721C55.6409 52.6695 55.6099 52.5676 55.5779 52.4661V52.4658C55.5458 52.3643 55.513 52.2631 55.4792 52.1623L66.3151 48.0522C66.3839 52.2512 68.3201 54.3319 73.0591 54.3319C77.7048 54.3319 79.8355 52.2611 79.7665 48.0522L90.6024 52.1623C90.5686 52.2631 90.5356 52.3643 90.5037 52.4658V52.4661C90.4717 52.5677 90.4408 52.6697 90.4106 52.7721L90.4104 52.7728C90.3803 52.8751 90.3511 52.9776 90.3228 53.0806L90.3223 53.0824C90.294 53.1849 90.2667 53.2879 90.2403 53.3913L90.2394 53.3944C90.2132 53.4973 90.1877 53.6005 90.163 53.704C88.6844 59.9086 90.1776 67.3149 92.8443 67.8556C92.7151 79.6704 92.7151 91.9112 92.8443 103.726H53.2373C53.3665 91.9112 53.3665 79.6704 53.2373 67.8556C55.9039 67.3149 57.3972 59.9086 55.9186 53.704Z" fill="white"/>
<path fill-rule="evenodd" clip-rule="evenodd" d="M55.9186 53.704C55.8939 53.6005 55.8684 53.4973 55.8422 53.3944L55.8413 53.3913C55.8148 53.2879 55.7874 53.1849 55.7593 53.0824L55.7588 53.0806C55.7305 52.9776 55.7012 52.8751 55.6713 52.7728L55.671 52.7721C55.6409 52.6695 55.6099 52.5676 55.5779 52.4661V52.4658C55.5458 52.3643 55.513 52.2631 55.4792 52.1623L66.3151 48.0522C67.5315 49.1335 70.473 50.2941 73.0408 50.2941C75.6086 50.2941 78.5502 49.1335 79.7665 48.0522L90.6024 52.1623C90.5686 52.2631 90.5356 52.3643 90.5037 52.4658V52.4661C90.4717 52.5677 90.4408 52.6697 90.4106 52.7721L90.4104 52.7728C90.3803 52.8751 90.3511 52.9776 90.3228 53.0806L90.3223 53.0824C90.294 53.1849 90.2667 53.2879 90.2403 53.3913L90.2394 53.3944C90.2132 53.4973 90.1877 53.6005 90.163 53.704C88.6844 59.9086 90.1776 67.3149 92.8443 67.8556C92.7151 79.6704 92.7151 91.9112 92.8443 103.726H53.2373C53.3665 91.9112 53.3665 79.6704 53.2373 67.8556C55.9039 67.3149 57.3972 59.9086 55.9186 53.704Z" fill="white"/>
<path d="M55.9186 53.704C55.8939 53.6005 55.8684 53.4973 55.8422 53.3944L55.8413 53.3913C55.8148 53.2879 55.7874 53.1849 55.7593 53.0824L55.7588 53.0806C55.7305 52.9776 55.7012 52.8751 55.6713 52.7728L55.671 52.7721C55.6409 52.6695 55.6099 52.5676 55.5779 52.4661V52.4658C55.5458 52.3643 55.513 52.2631 55.4792 52.1623L66.3151 48.0522C67.5315 49.1335 70.473 50.2941 73.0408 50.2941C75.6086 50.2941 78.5502 49.1335 79.7665 48.0522L90.6024 52.1623C90.5686 52.2631 90.5356 52.3643 90.5037 52.4658V52.4661C90.4717 52.5677 90.4408 52.6697 90.4106 52.7721L90.4104 52.7728C90.3803 52.8751 90.3511 52.9776 90.3228 53.0806L90.3223 53.0824C90.294 53.1849 90.2667 53.2879 90.2403 53.3913L90.2394 53.3944C90.2132 53.4973 90.1877 53.6005 90.163 53.704C88.6844 59.9086 90.1776 67.3149 92.8443 67.8556C92.7151 79.6704 92.7151 91.9112 92.8443 103.726H53.2373C53.3665 91.9112 53.3665 79.6704 53.2373 67.8556C55.9039 67.3149 57.3972 59.9086 55.9186 53.704Z" fill="white"/>
<path d="M55.9186 53.704C55.8939 53.6005 55.8684 53.4973 55.8422 53.3944L55.8413 53.3913C55.8148 53.2879 55.7874 53.1849 55.7593 53.0824L55.7588 53.0806C55.7305 52.9776 55.7012 52.8751 55.6713 52.7728L55.671 52.7721C55.6409 52.6695 55.6099 52.5676 55.5779 52.4661V52.4658C55.5458 52.3643 55.513 52.2631 55.4792 52.1623L66.3151 48.0522C67.5315 49.1335 70.473 50.2941 73.0408 50.2941C75.6086 50.2941 78.5502 49.1335 79.7665 48.0522L90.6024 52.1623C90.5686 52.2631 90.5356 52.3643 90.5037 52.4658V52.4661C90.4717 52.5677 90.4408 52.6697 90.4106 52.7721L90.4104 52.7728C90.3803 52.8751 90.3511 52.9776 90.3228 53.0806L90.3223 53.0824C90.294 53.1849 90.2667 53.2879 90.2403 53.3913L90.2394 53.3944C90.2132 53.4973 90.1877 53.6005 90.163 53.704C88.6844 59.9086 90.1776 67.3149 92.8443 67.8556C92.7151 79.6704 92.7151 91.9112 92.8443 103.726H53.2373C53.3665 91.9112 53.3665 79.6704 53.2373 67.8556C55.9039 67.3149 57.3972 59.9086 55.9186 53.704Z" fill="white" stroke="#231F20" stroke-miterlimit="22.926"/>
<path fill-rule="evenodd" clip-rule="evenodd" d="M65.9166 48.4992C67.1444 49.5905 69.3185 50.3604 70.9079 50.6724C71.6079 50.8097 72.3257 50.8922 73.0395 50.8922C73.7532 50.8922 74.4713 50.8097 75.1712 50.6724C76.7607 50.3604 78.9347 49.5905 80.1625 48.4992L80.396 48.2915L79.7652 48.0524C78.5489 49.1337 75.6073 50.2943 73.0395 50.2943C70.4718 50.2943 67.5303 49.1337 66.3139 48.0524L65.6831 48.2915L65.9166 48.4992Z" fill="white"/>
<path d="M65.9166 48.4992C67.1444 49.5905 69.3185 50.3604 70.9079 50.6724C71.6079 50.8097 72.3257 50.8922 73.0395 50.8922C73.7532 50.8922 74.4713 50.8097 75.1712 50.6724C76.7607 50.3604 78.9347 49.5905 80.1625 48.4992L80.396 48.2915L79.7652 48.0524C78.5489 49.1337 75.6073 50.2943 73.0395 50.2943C70.4718 50.2943 67.5303 49.1337 66.3139 48.0524L65.6831 48.2915L65.9166 48.4992Z" fill="white"/>
<path d="M65.9166 48.4992C67.1444 49.5905 69.3185 50.3604 70.9079 50.6724C71.6079 50.8097 72.3257 50.8922 73.0395 50.8922C73.7532 50.8922 74.4713 50.8097 75.1712 50.6724C76.7607 50.3604 78.9347 49.5905 80.1625 48.4992L80.396 48.2915L79.7652 48.0524C78.5489 49.1337 75.6073 50.2943 73.0395 50.2943C70.4718 50.2943 67.5303 49.1337 66.3139 48.0524L65.6831 48.2915L65.9166 48.4992Z" fill="white" stroke="#231F20" stroke-miterlimit="22.926"/>
<path fill-rule="evenodd" clip-rule="evenodd" d="M55.4788 52.1625L43 57.1843L47.7429 68.9698L53.2369 67.8557C56.1288 67.2694 57.6408 58.6086 55.4788 52.1625Z" fill="white"/>
<path d="M55.4788 52.1625L43 57.1843L47.7429 68.9698L53.2369 67.8557C56.1288 67.2694 57.6408 58.6086 55.4788 52.1625Z" fill="white"/>
<path d="M55.4788 52.1625L43 57.1843L47.7429 68.9698L53.2369 67.8557C56.1288 67.2694 57.6408 58.6086 55.4788 52.1625Z" fill="white" stroke="#231F20" stroke-miterlimit="22.926"/>
<path fill-rule="evenodd" clip-rule="evenodd" d="M90.6014 52.1625L103.08 57.1843L98.3374 68.9698L92.8434 67.8557C89.9515 67.2694 88.4394 58.6086 90.6014 52.1625Z" fill="white"/>
<path d="M90.6014 52.1625L103.08 57.1843L98.3374 68.9698L92.8434 67.8557C89.9515 67.2694 88.4394 58.6086 90.6014 52.1625Z" fill="white"/>
<path d="M90.6014 52.1625L103.08 57.1843L98.3374 68.9698L92.8434 67.8557C89.9515 67.2694 88.4394 58.6086 90.6014 52.1625Z" fill="white" stroke="#231F20" stroke-miterlimit="22.926"/>
<path fill-rule="evenodd" clip-rule="evenodd" d="M73.0397 50.2943C75.6075 50.2943 78.5491 49.1336 79.7654 48.0523L78.6355 47.5141C77.5929 48.2331 75.9544 48.7672 74.8404 48.9856C74.2499 49.1015 73.642 49.1732 73.0397 49.1732C72.4375 49.1732 71.8296 49.1014 71.2391 48.9856C70.1188 48.7658 68.4678 48.2271 67.4261 47.5017L66.314 48.0523C67.5305 49.1336 70.4719 50.2943 73.0397 50.2943Z" fill="white"/>
<path d="M73.0397 50.2943C75.6075 50.2943 78.5491 49.1336 79.7654 48.0523L78.6355 47.5141C77.5929 48.2331 75.9544 48.7672 74.8404 48.9856C74.2499 49.1015 73.642 49.1732 73.0397 49.1732C72.4375 49.1732 71.8296 49.1014 71.2391 48.9856C70.1188 48.7658 68.4678 48.2271 67.4261 47.5017L66.314 48.0523C67.5305 49.1336 70.4719 50.2943 73.0397 50.2943Z" fill="white"/>
<path d="M73.0397 50.2943C75.6075 50.2943 78.5491 49.1336 79.7654 48.0523L78.6355 47.5141C77.5929 48.2331 75.9544 48.7672 74.8404 48.9856C74.2499 49.1015 73.642 49.1732 73.0397 49.1732C72.4375 49.1732 71.8296 49.1014 71.2391 48.9856C70.1188 48.7658 68.4678 48.2271 67.4261 47.5017L66.314 48.0523C67.5305 49.1336 70.4719 50.2943 73.0397 50.2943Z" fill="white" stroke="#231F20" stroke-miterlimit="22.926"/>
<path fill-rule="evenodd" clip-rule="evenodd" d="M78.6355 47.514L79.7654 48.0523C79.8344 52.2613 77.7038 54.3321 73.0581 54.3321C68.319 54.3321 66.3828 52.2513 66.314 48.0523L67.4261 47.5016L67.4349 48.0339C67.4947 51.6792 69.0132 53.2111 73.0581 53.2111C77.0183 53.2111 78.704 51.6939 78.6447 48.0707L78.6355 47.514Z" fill="white"/>
<path d="M78.6355 47.514L79.7654 48.0523C79.8344 52.2613 77.7038 54.3321 73.0581 54.3321C68.319 54.3321 66.3828 52.2513 66.314 48.0523L67.4261 47.5016L67.4349 48.0339C67.4947 51.6792 69.0132 53.2111 73.0581 53.2111C77.0183 53.2111 78.704 51.6939 78.6447 48.0707L78.6355 47.514Z" fill="white"/>
<path d="M78.6355 47.514L79.7654 48.0523C79.8344 52.2613 77.7038 54.3321 73.0581 54.3321C68.319 54.3321 66.3828 52.2513 66.314 48.0523L67.4261 47.5016L67.4349 48.0339C67.4947 51.6792 69.0132 53.2111 73.0581 53.2111C77.0183 53.2111 78.704 51.6939 78.6447 48.0707L78.6355 47.514Z" fill="white" stroke="#231F20" stroke-miterlimit="22.926"/>
<path d="M55.9186 53.704C55.8939 53.6005 55.8684 53.4973 55.8422 53.3944L55.8413 53.3913C55.8148 53.2879 55.7874 53.1849 55.7593 53.0824L55.7588 53.0806C55.7305 52.9776 55.7012 52.8751 55.6713 52.7728L55.671 52.7721C55.6409 52.6695 55.6099 52.5676 55.5779 52.4661V52.4658C55.5458 52.3643 55.513 52.2631 55.4792 52.1623L66.3151 48.0522C66.3839 52.2512 68.3201 54.3319 73.0591 54.3319C77.7048 54.3319 79.8355 52.2611 79.7665 48.0522L90.6024 52.1623C90.5686 52.2631 90.5356 52.3643 90.5037 52.4658V52.4661C90.4717 52.5677 90.4408 52.6697 90.4106 52.7721L90.4104 52.7728C90.3803 52.8751 90.3511 52.9776 90.3228 53.0806L90.3223 53.0824C90.294 53.1849 90.2667 53.2879 90.2403 53.3913L90.2394 53.3944C90.2132 53.4973 90.1877 53.6005 90.163 53.704C88.6844 59.9086 90.1776 67.3149 92.8443 67.8556C92.7151 79.6704 92.7151 91.9112 92.8443 103.726H53.2373C53.3665 91.9112 53.3665 79.6704 53.2373 67.8556C55.9039 67.3149 57.3972 59.9086 55.9186 53.704Z" fill="white"/>
<path d="M55.9186 53.704C55.8939 53.6005 55.8684 53.4973 55.8422 53.3944L55.8413 53.3913C55.8148 53.2879 55.7874 53.1849 55.7593 53.0824L55.7588 53.0806C55.7305 52.9776 55.7012 52.8751 55.6713 52.7728L55.671 52.7721C55.6409 52.6695 55.6099 52.5676 55.5779 52.4661V52.4658C55.5458 52.3643 55.513 52.2631 55.4792 52.1623L66.3151 48.0522C66.3839 52.2512 68.3201 54.3319 73.0591 54.3319C77.7048 54.3319 79.8355 52.2611 79.7665 48.0522L90.6024 52.1623C90.5686 52.2631 90.5356 52.3643 90.5037 52.4658V52.4661C90.4717 52.5677 90.4408 52.6697 90.4106 52.7721L90.4104 52.7728C90.3803 52.8751 90.3511 52.9776 90.3228 53.0806L90.3223 53.0824C90.294 53.1849 90.2667 53.2879 90.2403 53.3913L90.2394 53.3944C90.2132 53.4973 90.1877 53.6005 90.163 53.704C88.6844 59.9086 90.1776 67.3149 92.8443 67.8556C92.7151 79.6704 92.7151 91.9112 92.8443 103.726H53.2373C53.3665 91.9112 53.3665 79.6704 53.2373 67.8556C55.9039 67.3149 57.3972 59.9086 55.9186 53.704Z" fill="white" stroke="#231F20" stroke-miterlimit="22.926"/>
</svg>
