<svg width="144" height="144" viewBox="0 0 144 144" fill="none" xmlns="http://www.w3.org/2000/svg"><path d="M72.3022 52.6182C72.6379 51.8702 73.2075 50.7938 73.8122 50.1908C75.6149 48.3936 79.5888 47.0494 81.9121 46.4205C81.3081 47.0931 82.0361 47.8567 82.882 48.5586C82.8129 51.059 77.9444 52.6273 73.2885 52.6281H72.9435C72.7301 52.6281 72.5162 52.6247 72.3022 52.6182Z" fill="white" stroke="#231F20" stroke-linecap="round" stroke-linejoin="round"/><path d="M72.3026 52.6182C72.5038 52.1693 72.7895 51.6024 73.1163 51.0903C72.8985 50.7489 78.2419 45.7411 78 45.5C76 44 68 45 64.3203 46.4205C64.9246 47.0931 64.1963 47.8566 63.3501 48.5585C63.4161 50.9442 67.8518 52.4822 72.3026 52.6182Z" fill="white" stroke="#231F20" stroke-linecap="round" stroke-linejoin="round"/><path d="M73 51C71.1976 49.2028 66.6434 47.0497 64.3198 46.4206C63.4851 46.1945 62.693 45.9699 62.0859 45.8337C62.8394 45.4861 66.0539 45.2271 69.4106 45.1119C70.5126 46.5695 71.9314 48.9598 73 51Z" fill="white" stroke="#231F20" stroke-linecap="round" stroke-linejoin="round"/><path d="M73 51C74.8024 49.2028 79.5891 47.0497 81.9123 46.4206C82.7471 46.1945 83.5394 45.9699 84.1462 45.8337C83.3928 45.4861 80.1785 45.2271 76.8216 45.1119C75.7195 46.5695 74.0689 48.9598 73 51Z" fill="white" stroke="#231F20" stroke-linecap="round" stroke-linejoin="round"/><path d="M84.1462 45.8425C82.6704 44.8195 63.5622 44.8195 62.0864 45.8425C61.6855 45.3328 62.7917 40.2796 63.1229 38.0906C63.2141 37.4886 63.4045 36.9224 63.8279 36.485C66.3491 33.8812 69.0254 30.0091 73.1163 30.0091C77.2073 30.0091 79.8836 33.8812 82.4047 36.485C82.8282 36.9224 83.0185 37.4886 83.1097 38.0906C83.4407 40.2796 84.5472 45.3328 84.1462 45.8425Z" fill="white" stroke="#231F20" stroke-linecap="round" stroke-linejoin="round"/><path d="M70 30.9999V45.0669Z" fill="white"/><path d="M76.5 30.9999V45.0668Z" fill="white"/><path d="M70 30.9999V45.0669M76.5 30.9999V45.0668" stroke="#231F20" stroke-miterlimit="22.926"/></svg>