<svg width="144" height="144" viewBox="0 0 144 144" fill="none" xmlns="http://www.w3.org/2000/svg"><path d="M9 71.5L11.5 80.5C12.6842 81.3343 34.4545 75.4813 45.5 72.7571C48.0092 72.1382 49.9649 71.6808 51.0001 71.5C52.4769 69.4513 65.5002 62.8091 63 48.5C60.6411 48.9875 45.7383 54.3226 40.6598 56.3884C27.5316 61.7284 9.59874 70.2941 9 71.5Z" fill="white" stroke="#231F20" stroke-linecap="round" stroke-linejoin="round"/><path d="M136.318 71.5L133.818 80.5C132.634 81.3343 110.863 75.4813 99.8179 72.7571C97.3087 72.1382 95.353 71.6809 94.3178 71.5C92.8409 69.4513 79.8177 62.8092 82.3179 48.5C84.6768 48.9876 99.5796 54.3227 104.658 56.3884C117.786 61.7285 135.719 70.2941 136.318 71.5Z" fill="white" stroke="#231F20" stroke-linecap="round" stroke-linejoin="round"/></svg>