<svg width="144" height="144" viewBox="0 0 144 144" fill="none" xmlns="http://www.w3.org/2000/svg"><path d="M63.0208 48.4135C70.0144 49.579 75.5597 49.579 82.553 48.4135L105.074 56.5C104.548 59.6534 99.5738 72 99.5738 72L95.1675 71.2011C92.8152 74.3964 95.2688 99.6809 91.9124 99.6855H53.6617C50.2959 99.6809 52.7601 74.398 50.4062 71.2011L46 72C46 72 41.0255 59.6534 40.5 56.5L63.0208 48.4135Z" fill="white" stroke="#231F20" stroke-linecap="round" stroke-linejoin="round"/><path d="M9 71.5L11.5 80.5C12.6842 81.3343 34.4545 75.4813 45.5 72.7571C48.0092 72.1382 49.9649 71.6809 51.0001 71.5C52.4769 69.4513 54.9569 66.5612 52.4568 52.252C50.0979 52.7396 45.7383 54.3227 40.6598 56.3884C27.5316 61.7285 9.59874 70.2941 9 71.5Z" fill="white" stroke="#231F20" stroke-linecap="round" stroke-linejoin="round"/><path d="M69 47.5L68.5 47.5L68.5 48L68.5 68L68.5 68.5L69 68.5L70 68.5L70.5 68.5L70.5 68L70.5 48L70.5 47.5L70 47.5L69 47.5Z" fill="white" stroke="#231F20"/><path d="M75 47.5L74.5 47.5L74.5 48L74.5 68L74.5 68.5L75 68.5L76 68.5L76.5 68.5L76.5 68L76.5 48L76.5 47.5L76 47.5L75 47.5Z" fill="white" stroke="#231F20"/><path d="M136.524 71.5L134.024 80.5C132.84 81.3343 111.07 75.4813 100.024 72.7571C97.5152 72.1382 95.5595 71.6809 94.5243 71.5C93.0475 69.4513 90.5675 66.5612 93.0676 52.252C95.4266 52.7396 99.7861 54.3227 104.865 56.3884C117.993 61.7285 135.926 70.2941 136.524 71.5Z" fill="white" stroke="#231F20" stroke-linecap="round" stroke-linejoin="round"/><path d="M63.8353 84.2225H81.7397C82.5986 88.5908 84.1963 92.6082 87.0298 95.6163L84.5882 99.6855H60.9868L58.5454 95.6163C61.3789 92.5867 62.9764 88.5908 63.8353 84.2225Z" fill="white" stroke="#231F20" stroke-linecap="round" stroke-linejoin="round"/><path d="M72.3022 52.6182C72.6379 51.8702 73.2075 50.7938 73.8122 50.1908C75.6149 48.3936 79.5888 47.0494 81.9121 46.4205C81.3081 47.0931 82.0361 47.8567 82.882 48.5586C82.8129 51.059 77.9444 52.6273 73.2885 52.6281H72.9435C72.7301 52.6281 72.5162 52.6247 72.3022 52.6182Z" fill="white" stroke="#231F20" stroke-linecap="round" stroke-linejoin="round"/><path d="M72.3026 52.6182C72.5038 52.1693 72.7895 51.6024 73.1163 51.0903C72.8985 50.7489 78.2419 45.7411 78 45.5C76 44 68 45 64.3203 46.4205C64.9246 47.0931 64.1963 47.8566 63.3501 48.5585C63.4161 50.9442 67.8518 52.4822 72.3026 52.6182Z" fill="white" stroke="#231F20" stroke-linecap="round" stroke-linejoin="round"/><path d="M73 51C71.1976 49.2028 66.6434 47.0497 64.3198 46.4206C63.4851 46.1945 62.693 45.9699 62.0859 45.8337C62.8394 45.4861 66.0539 45.2271 69.4106 45.1119C70.5126 46.5695 71.9314 48.9598 73 51Z" fill="white" stroke="#231F20" stroke-linecap="round" stroke-linejoin="round"/><path d="M73 51C74.8024 49.2028 79.5891 47.0497 81.9123 46.4206C82.7471 46.1945 83.5394 45.9699 84.1462 45.8337C83.3928 45.4861 80.1785 45.2271 76.8216 45.1119C75.7195 46.5695 74.0689 48.9598 73 51Z" fill="white" stroke="#231F20" stroke-linecap="round" stroke-linejoin="round"/><path d="M84.1462 45.8425C82.6704 44.8195 63.5622 44.8195 62.0864 45.8425C61.6855 45.3328 62.7917 40.2797 63.1229 38.0906C63.2141 37.4886 63.4045 36.9224 63.8279 36.485C66.3491 33.8812 69.0254 30.0091 73.1163 30.0091C77.2073 30.0091 79.8836 33.8812 82.4047 36.485C82.8282 36.9224 83.0185 37.4886 83.1097 38.0906C83.4407 40.2797 84.5472 45.3328 84.1462 45.8425Z" fill="white" stroke="#231F20" stroke-linecap="round" stroke-linejoin="round"/><path d="M73.1162 30V45.0668Z" fill="white"/><path d="M73.1162 30V45.0668" stroke="#231F20" stroke-miterlimit="22.926"/><path d="M53.6621 99.6855H91.9128L91.0987 104.162H54.4759L53.6621 99.6855Z" fill="white" stroke="#231F20" stroke-linecap="round" stroke-linejoin="round"/><path d="M9.04463 71.1306L11.8885 80.4734L7.36939 80.9984L4.99951 73.2124L9.04463 71.1306Z" fill="white" stroke="#231F20" stroke-linecap="round" stroke-linejoin="round"/><path d="M136.672 71.1306L133.829 80.4734L138.348 80.9984L140.718 73.2124L136.672 71.1306Z" fill="white" stroke="#231F20" stroke-linecap="round" stroke-linejoin="round"/><path d="M10.7644 78.1843L6.45258 79.3709" stroke="#231F20"/><path d="M9.57789 73.8725L6.00018 75" stroke="#231F20"/><path d="M10.1712 76.0284L5.85932 77.2149" stroke="#231F20"/><path d="M134.609 77.95L138.921 79.1366M136.256 73.6381L139.833 74.7657M135.202 75.7941L139.514 76.9807" stroke="#231F20"/><path d="M56 100.035V104.035" stroke="#231F20"/><path d="M58.3931 100.035V104.035" stroke="#231F20"/><path d="M60.7856 100.035V104.035" stroke="#231F20"/><path d="M63.1787 100.035V104.035" stroke="#231F20"/><path d="M65.5713 100.035V104.035" stroke="#231F20"/><path d="M67.9644 100.035V104.035" stroke="#231F20"/><path d="M70.3569 100.035V104.035" stroke="#231F20"/><path d="M72.75 100.035V104.035" stroke="#231F20"/><path d="M75.1431 100.035V104.035" stroke="#231F20"/><path d="M77.5356 100.035V104.035" stroke="#231F20"/><path d="M79.9287 100.035V104.035" stroke="#231F20"/><path d="M82.3213 100.035V104.035" stroke="#231F20"/><path d="M84.7144 100.035V104.035" stroke="#231F20"/><path d="M87.1069 100.035V104.035" stroke="#231F20"/><path d="M89.5 100.035V104.035" stroke="#231F20"/></svg>