<svg viewBox="0 0 144 144" fill="none" xmlns="http://www.w3.org/2000/svg"><path fill-rule="evenodd" clip-rule="evenodd" d="M136.672 71.1305L133.829 80.4733L138.348 80.9983L140.718 73.2124L136.672 71.1305Z" fill="white"/><path d="M136.672 71.1305L133.829 80.4733L138.348 80.9983L140.718 73.2124L136.672 71.1305Z" fill="white" stroke="#231F20" stroke-linecap="round" stroke-linejoin="round"/><path fill-rule="evenodd" clip-rule="evenodd" d="M66.79 43.0936L67.0452 50.9411L77.9552 51.3239L78.6571 42.5831L66.79 43.0936Z" fill="white"/><path fill-rule="evenodd" clip-rule="evenodd" d="M82.553 48.4133C75.5596 49.5789 70.0144 49.5789 63.0208 48.4133L53.6617 51.6688C54.9168 59.2001 55.4294 67.6659 50.4062 71.201C52.7601 74.3979 50.2959 99.6808 53.6617 99.6854H91.9124C95.2688 99.6808 92.8152 74.3963 95.1675 71.201C90.1447 67.6659 90.657 59.2001 91.9124 51.6688L82.553 48.4133Z" fill="white"/><path d="M82.553 48.4133C75.5596 49.5789 70.0144 49.5789 63.0208 48.4133L53.6617 51.6688C54.9168 59.2001 55.4294 67.6659 50.4062 71.201C52.7601 74.3979 50.2959 99.6808 53.6617 99.6854H91.9124C95.2688 99.6808 92.8152 74.3963 95.1675 71.201C90.1447 67.6659 90.657 59.2001 91.9124 51.6688L82.553 48.4133Z" fill="white" stroke="#231F20" stroke-linecap="round" stroke-linejoin="round"/><path fill-rule="evenodd" clip-rule="evenodd" d="M53.6621 99.6854H91.9128L91.0987 104.161H54.4759L53.6621 99.6854Z" fill="white"/><path d="M53.6621 99.6854H91.9128L91.0987 104.161H54.4759L53.6621 99.6854Z" fill="white" stroke="#231F20" stroke-linecap="round" stroke-linejoin="round"/><path fill-rule="evenodd" clip-rule="evenodd" d="M136.672 71.1306L133.828 80.4734C132.375 81.4972 100.045 74.5515 94.453 73.5745C92.9761 71.5258 89.4117 65.9785 91.9119 51.6693C97.0723 53.9286 135.842 69.4582 136.672 71.1306Z" fill="white"/><path d="M136.672 71.1306L133.828 80.4734C132.375 81.4972 100.045 74.5515 94.453 73.5745C92.9761 71.5258 89.4117 65.9785 91.9119 51.6693C97.0723 53.9286 135.842 69.4582 136.672 71.1306Z" fill="white" stroke="#231F20" stroke-linecap="round" stroke-linejoin="round"/><path fill-rule="evenodd" clip-rule="evenodd" d="M9.04463 71.1305L11.8885 80.4733L7.36939 80.9983L4.99951 73.2124L9.04463 71.1305Z" fill="white"/><path d="M9.04463 71.1305L11.8885 80.4733L7.36939 80.9983L4.99951 73.2124L9.04463 71.1305Z" fill="white" stroke="#231F20" stroke-linecap="round" stroke-linejoin="round"/><path fill-rule="evenodd" clip-rule="evenodd" d="M9.04443 71.1306L11.8883 80.4734C13.3416 81.4972 45.6717 74.5515 51.2638 73.5745C52.7407 71.5258 56.3051 65.9785 53.8049 51.6693C48.6445 53.9286 9.8748 69.4582 9.04443 71.1306Z" fill="white"/><path d="M9.04443 71.1306L11.8883 80.4734C13.3416 81.4972 45.6717 74.5515 51.2638 73.5745C52.7407 71.5258 56.3051 65.9785 53.8049 51.6693C48.6445 53.9286 9.8748 69.4582 9.04443 71.1306Z" fill="white" stroke="#231F20" stroke-linecap="round" stroke-linejoin="round"/><path fill-rule="evenodd" clip-rule="evenodd" d="M63.8353 84.2224H81.7397C82.5986 88.5907 84.1963 92.6082 87.0298 95.6162L84.5882 99.6854H60.9868L58.5454 95.6162C61.3789 92.5867 62.9764 88.5907 63.8353 84.2224Z" fill="white"/><path d="M63.8353 84.2224H81.7397C82.5986 88.5907 84.1963 92.6082 87.0298 95.6162L84.5882 99.6854H60.9868L58.5454 95.6162C61.3789 92.5867 62.9764 88.5907 63.8353 84.2224Z" fill="white" stroke="#231F20" stroke-linecap="round" stroke-linejoin="round"/><path fill-rule="evenodd" clip-rule="evenodd" d="M72.091 50.0364C70.2886 48.2392 66.3148 46.8952 63.9912 46.2661C63.1565 46.04 62.3644 45.8155 61.7573 45.6792C62.5108 45.3316 65.7253 45.0726 69.0819 44.9574C70.184 46.415 71.0224 47.9963 72.091 50.0364Z" fill="white"/><path d="M72.091 50.0364C70.2886 48.2392 66.3148 46.8952 63.9912 46.2661C63.1565 46.04 62.3644 45.8155 61.7573 45.6792C62.5108 45.3316 65.7253 45.0726 69.0819 44.9574C70.184 46.415 71.0224 47.9963 72.091 50.0364Z" fill="white" stroke="#231F20" stroke-linecap="round" stroke-linejoin="round"/><path fill-rule="evenodd" clip-rule="evenodd" d="M71.9736 52.4638C72.3093 51.7158 72.8789 50.6394 73.4836 50.0364C75.2863 48.2392 79.2602 46.895 81.5834 46.2661C80.9794 46.9387 81.7075 47.7023 82.5534 48.4042C82.4843 50.9046 77.6158 52.4729 72.9599 52.4736H72.6149C72.4015 52.4736 72.1876 52.4703 71.9736 52.4638Z" fill="white"/><path d="M71.9736 52.4638C72.3093 51.7158 72.8789 50.6394 73.4836 50.0364C75.2863 48.2392 79.2602 46.895 81.5834 46.2661C80.9794 46.9387 81.7075 47.7023 82.5534 48.4042C82.4843 50.9046 77.6158 52.4729 72.9599 52.4736H72.6149C72.4015 52.4736 72.1876 52.4703 71.9736 52.4638Z" fill="white" stroke="#231F20" stroke-linecap="round" stroke-linejoin="round"/><path fill-rule="evenodd" clip-rule="evenodd" d="M71.9739 52.4637C72.1752 52.0149 72.4609 51.4479 72.7877 50.9361C72.5699 50.5945 72.3334 50.2775 72.0915 50.0364C70.2891 48.2391 66.3152 46.8949 63.9917 46.266C64.596 46.9387 63.8676 47.7022 63.0215 48.4041C63.0875 50.7898 67.5232 52.3278 71.9739 52.4637Z" fill="white"/><path d="M71.9739 52.4637C72.1752 52.0149 72.4609 51.4479 72.7877 50.9359C72.5699 50.5945 72.3334 50.2775 72.0915 50.0364C70.2891 48.2391 66.3152 46.8949 63.9917 46.266C64.596 46.9387 63.8676 47.7022 63.0215 48.4041C63.0875 50.7898 67.5232 52.3278 71.9739 52.4637Z" fill="white"/><path d="M71.9739 52.4637C72.1752 52.0149 72.4609 51.4479 72.7877 50.9359C72.5699 50.5945 72.3334 50.2775 72.0915 50.0364C70.2891 48.2391 66.3152 46.8949 63.9917 46.266C64.596 46.9387 63.8676 47.7022 63.0215 48.4041C63.0875 50.7898 67.5232 52.3278 71.9739 52.4637Z" fill="white" stroke="#231F20" stroke-linecap="round" stroke-linejoin="round"/><path fill-rule="evenodd" clip-rule="evenodd" d="M73.4839 50.0364C75.2863 48.2392 79.2604 46.8952 81.5837 46.2661C82.4185 46.04 83.2108 45.8155 83.8176 45.6792C83.0642 45.3316 79.8499 45.0726 76.493 44.9574C75.3909 46.415 74.5528 47.9963 73.4839 50.0364Z" fill="white"/><path d="M73.4839 50.0364C75.2863 48.2392 79.2604 46.8952 81.5837 46.2661C82.4185 46.04 83.2108 45.8155 83.8176 45.6792C83.0642 45.3316 79.8499 45.0726 76.493 44.9574C75.3909 46.415 74.5528 47.9963 73.4839 50.0364Z" fill="white" stroke="#231F20" stroke-linecap="round" stroke-linejoin="round"/><path fill-rule="evenodd" clip-rule="evenodd" d="M83.8176 45.6881C82.3418 44.665 63.2336 44.665 61.7578 45.6881C61.3568 45.1784 62.463 40.1252 62.7943 37.9361C62.8855 37.3342 63.0758 36.768 63.4993 36.3306C66.0205 33.7268 68.6967 29.8547 72.7877 29.8547C76.8787 29.8547 79.555 33.7268 82.0761 36.3306C82.4996 36.768 82.6899 37.3342 82.7811 37.9361C83.1121 40.1252 84.2186 45.1784 83.8176 45.6881Z" fill="white"/><path d="M83.8176 45.6881C82.3418 44.665 63.2336 44.665 61.7578 45.6881C61.3568 45.1784 62.463 40.1252 62.7943 37.9361C62.8855 37.3342 63.0758 36.768 63.4993 36.3306C66.0205 33.7268 68.6967 29.8547 72.7877 29.8547C76.8787 29.8547 79.555 33.7268 82.0761 36.3306C82.4996 36.768 82.6899 37.3342 82.7811 37.9361C83.1121 40.1252 84.2186 45.1784 83.8176 45.6881Z" fill="white" stroke="#231F20" stroke-linecap="round" stroke-linejoin="round"/><path d="M72.7876 29.8456V44.9124Z" fill="white"/><path d="M72.7876 29.8456V44.9124" stroke="#231F20" stroke-miterlimit="22.926"/></svg>