<svg width="144" height="144" viewBox="0 0 144 144" fill="none" xmlns="http://www.w3.org/2000/svg"><path d="M9 71.5L11.5 80.5C12.6842 81.3343 34.4545 75.4813 45.5 72.7571C48.0092 72.1382 49.9649 71.6809 51.0001 71.5C52.4769 69.4513 54.9569 66.5612 52.4568 52.252C50.0979 52.7396 45.7383 54.3227 40.6598 56.3884C27.5316 61.7285 9.59874 70.2941 9 71.5Z" fill="white" stroke="#231F20" stroke-linecap="round" stroke-linejoin="round"/><path d="M136.524 71.5L134.024 80.5C132.84 81.3343 111.07 75.4813 100.024 72.7571C97.5152 72.1382 95.5595 71.6809 94.5243 71.5C93.0475 69.4513 90.5675 66.5612 93.0676 52.252C95.4266 52.7396 99.7861 54.3227 104.865 56.3884C117.993 61.7285 135.926 70.2941 136.524 71.5Z" fill="white" stroke="#231F20" stroke-linecap="round" stroke-linejoin="round"/></svg>