<svg width="144" height="144" viewBox="0 0 144 144" fill="none" xmlns="http://www.w3.org/2000/svg"><path d="M53.6621 99.6855H91.9128L91.0987 104.162H54.4759L53.6621 99.6855Z" fill="white" stroke="#231F20" stroke-linecap="round" stroke-linejoin="round"/><path d="M9.04463 71.1306L11.8885 80.4734L7.36939 80.9984L4.99951 73.2124L9.04463 71.1306Z" fill="white" stroke="#231F20" stroke-linecap="round" stroke-linejoin="round"/><path d="M136.672 71.1306L133.829 80.4734L138.348 80.9984L140.718 73.2124L136.672 71.1306Z" fill="white" stroke="#231F20" stroke-linecap="round" stroke-linejoin="round"/><path d="M10.7644 78.1843L6.45258 79.3709" stroke="#231F20"/><path d="M9.57789 73.8725L6.00018 75" stroke="#231F20"/><path d="M10.1712 76.0284L5.85932 77.2149" stroke="#231F20"/><path d="M134.609 77.95L138.921 79.1366M136.256 73.6381L139.833 74.7657M135.202 75.7941L139.514 76.9807" stroke="#231F20"/><path d="M56 100.035V104.035" stroke="#231F20"/><path d="M58.3931 100.035V104.035" stroke="#231F20"/><path d="M60.7856 100.035V104.035" stroke="#231F20"/><path d="M63.1787 100.035V104.035" stroke="#231F20"/><path d="M65.5713 100.035V104.035" stroke="#231F20"/><path d="M67.9644 100.035V104.035" stroke="#231F20"/><path d="M70.3569 100.035V104.035" stroke="#231F20"/><path d="M72.75 100.035V104.035" stroke="#231F20"/><path d="M75.1431 100.035V104.035" stroke="#231F20"/><path d="M77.5356 100.035V104.035" stroke="#231F20"/><path d="M79.9287 100.035V104.035" stroke="#231F20"/><path d="M82.3213 100.035V104.035" stroke="#231F20"/><path d="M84.7144 100.035V104.035" stroke="#231F20"/><path d="M87.1069 100.035V104.035" stroke="#231F20"/><path d="M89.5 100.035V104.035" stroke="#231F20"/></svg>