<svg width="144" height="144" viewBox="0 0 144 144" fill="none" xmlns="http://www.w3.org/2000/svg"><path d="M65.4353 48.3238C65.472 48.6945 65.5519 49.0488 65.6701 49.3848C65.5473 49.0548 65.473 48.7059 65.4353 48.3238Z" fill="white"/><path d="M78.1354 48.3127C78.0987 48.6834 78.0188 49.0377 77.9006 49.3737C78.0234 49.0437 78.0977 48.6948 78.1354 48.3127Z" fill="white"/><path d="M50.0928 68.9226L52.0649 99.6801H91.5058L93.4779 68.9115L98.0706 70.9893C98.0706 70.9893 99.9944 60.7378 100.5 58L92.689 52.7413L79.5707 48.3127C79.5707 51.9893 75.6103 54.5004 71.7654 54.5004C67.9204 54.5004 64 52.0004 64 48.3238L50.8817 52.7524L43 58C43.5056 60.7378 45.5001 71.0004 45.5001 71.0004L50.0928 68.9226Z" fill="white"/><path d="M65.4353 48.3238L65.4041 48.0111L64 48.3238C64 52.0004 67.9204 54.5004 71.7654 54.5004C75.6103 54.5004 79.5707 51.9893 79.5707 48.3127L78.1666 48L78.1354 48.3127C78.0977 48.6948 78.0234 49.0437 77.9006 49.3737C77.1046 51.6369 74.5511 53.0802 71.7654 53.0802C68.9797 53.0802 66.4662 51.648 65.6701 49.3848C65.5473 49.0548 65.473 48.7059 65.4353 48.3238Z" fill="white"/><path d="M71.7654 50.7224C69.3636 50.7147 67.6289 50.0639 65.717 49.5044C65.7007 49.4648 65.685 49.425 65.6701 49.3848C66.4662 51.648 68.9797 53.0802 71.7654 53.0802C74.5511 53.0802 77.1046 51.6369 77.9006 49.3737C77.8857 49.4138 77.87 49.4537 77.8537 49.4933C75.9418 50.0528 74.1671 50.7147 71.7654 50.7224Z" fill="white"/><path d="M65.717 49.5044C67.6289 50.0639 69.3636 50.7147 71.7654 50.7224C74.1671 50.7147 75.9418 50.0528 77.8537 49.4933C77.87 49.4537 77.8857 49.4138 77.9006 49.3737C78.0188 49.0377 78.0987 48.6834 78.1354 48.3127L78.1666 48C77.5305 48.1863 76.8896 48.3839 76.2476 48.5414C74.7948 48.8734 73.2296 49.2084 71.7654 49.2229C70.3011 49.2084 68.7759 48.8845 67.3231 48.5525C66.6811 48.395 66.0402 48.1974 65.4041 48.0111L65.4353 48.3238C65.472 48.6945 65.5519 49.0488 65.6701 49.3848C65.685 49.425 65.7007 49.4648 65.717 49.5044Z" fill="white"/><path d="M64 48.3238L50.8817 52.7524L43 58C43.5056 60.7378 45.5001 71.0004 45.5001 71.0004L50.0928 68.9226L52.0649 99.6801H91.5058L93.4779 68.9115L98.0706 70.9893C98.0706 70.9893 99.9944 60.7378 100.5 58L92.689 52.7413L79.5707 48.3127M64 48.3238C64 52.0004 67.9204 54.5004 71.7654 54.5004C75.6103 54.5004 79.5707 51.9893 79.5707 48.3127M64 48.3238L65.4041 48.0111M65.4353 48.3238L65.4041 48.0111M65.4353 48.3238C65.472 48.6945 65.5519 49.0488 65.6701 49.3848M65.4353 48.3238C65.473 48.7059 65.5473 49.0548 65.6701 49.3848M65.4041 48.0111C66.0402 48.1974 66.6811 48.395 67.3231 48.5525C68.7759 48.8845 70.3011 49.2084 71.7654 49.2229C73.2296 49.2084 74.7948 48.8734 76.2476 48.5414C76.8896 48.3839 77.5305 48.1863 78.1666 48M65.6701 49.3848C65.685 49.425 65.7007 49.4648 65.717 49.5044C67.6289 50.0639 69.3636 50.7147 71.7654 50.7224C74.1671 50.7147 75.9418 50.0528 77.8537 49.4933C77.87 49.4537 77.8857 49.4138 77.9006 49.3737M65.6701 49.3848C66.4662 51.648 68.9797 53.0802 71.7654 53.0802C74.5511 53.0802 77.1046 51.6369 77.9006 49.3737M79.5707 48.3127L78.1666 48M78.1354 48.3127L78.1666 48M78.1354 48.3127C78.0987 48.6834 78.0188 49.0377 77.9006 49.3737M78.1354 48.3127C78.0977 48.6948 78.0234 49.0437 77.9006 49.3737" stroke="#231F20" stroke-miterlimit="22.926"/><path d="M53.643 103.629H89.9277C90.654 102.515 91.1797 101.2 91.5052 99.6854H52.0654C52.391 101.2 52.9167 102.515 53.643 103.629Z" fill="white" stroke="#231F20" stroke-miterlimit="22.926"/><path d="M12.7571 76.4648L16.9635 84.0538L12.4416 85.6584L9 79.449L12.7571 76.4648Z" fill="white" stroke="#231F20" stroke-miterlimit="22.926"/><path d="M13.569 78.6666L10 80.6669M14.5345 80.3333L10.9655 82.3336M15.5 82L11.931 84.0003" stroke="#231F20"/><path d="M131 76.5L126.794 84.089L131.316 85.6936L134.757 79.4842L131 76.5Z" fill="white" stroke="#231F20" stroke-miterlimit="22.926"/><path d="M130.147 78.6664L133.716 80.6667M129.182 80.3331L132.751 82.3334M128.216 81.9998L131.785 84.0001" stroke="#231F20"/><path d="M55 100V104" stroke="#231F20"/><path d="M57.3928 100V104" stroke="#231F20"/><path d="M59.7859 100V104" stroke="#231F20"/><path d="M62.1787 100V104" stroke="#231F20"/><path d="M64.5713 100V104" stroke="#231F20"/><path d="M66.9641 100V104" stroke="#231F20"/><path d="M69.3572 100V104" stroke="#231F20"/><path d="M71.75 100V104" stroke="#231F20"/><path d="M74.1428 100V104" stroke="#231F20"/><path d="M76.5359 100V104" stroke="#231F20"/><path d="M78.9287 100V104" stroke="#231F20"/><path d="M81.3213 100V104" stroke="#231F20"/><path d="M83.7141 100V104" stroke="#231F20"/><path d="M86.1072 100V104" stroke="#231F20"/><path d="M88.5 100V104" stroke="#231F20"/><path d="M16.9595 84.0464L50 69.5C52.6003 64.6941 52.5744 58.6404 50.5 53L12.7573 76.4648L16.9595 84.0464Z" fill="white" stroke="#231F20" stroke-miterlimit="22.926"/><path d="M126.798 84.0464L93.7573 69.5C91.157 64.6941 91.1829 58.6404 93.2573 53L131 76.4648L126.798 84.0464Z" fill="white" stroke="#231F20" stroke-miterlimit="22.926"/></svg>