<svg width="144" height="144" viewBox="0 0 144 144" fill="none" xmlns="http://www.w3.org/2000/svg"><path d="M50 64.5L47 51.5C51.5062 49.7384 50.0327 50.2726 54.5389 48.5109L66.0778 44C66.1466 48.199 68.0536 50.2797 72.7926 50.2797C77.5317 50.2797 79.4312 48.199 79.5 44L90.2462 48.5109C94.7524 50.2725 93.2789 49.7383 97.7852 51.4999L94.7852 64.4999L91.7851 63.8033C91.656 75.6181 91.656 87.8589 91.7851 99.6737L53.0001 99.6738C53.1292 87.859 53.1292 75.6182 53.0001 63.8034L50 64.5Z" fill="white" stroke="#231F20" stroke-miterlimit="22.926"/><path d="M47 65.5001L43 53.0001C47.5062 51.2384 50.0327 50.2726 54.5389 48.511C56.154 54.4783 55.8951 57.8401 53.0001 63.8034L47 65.5001Z" fill="white" stroke="#231F20" stroke-miterlimit="22.926"/><path d="M97.5385 65.4891L101.539 52.9891C97.0323 51.2274 94.5058 50.2616 89.9996 48.5C88.3845 54.4674 88.6434 57.8291 91.5385 63.7924L97.5385 65.4891Z" fill="white" stroke="#231F20" stroke-miterlimit="22.926"/><path d="M78.6942 43.5128L79.9467 44.1354C79.9472 53 65 52.5 65.0459 44.1354L66.28 43.5C66.1756 47.8835 70 49 72.5 49C75 49 78.9705 47.8835 78.6942 43.5128Z" fill="white"/><path d="M66.4169 45.1108C69.8244 47.2736 75.2155 47.2801 78.6107 45.1108C78.6414 44.668 78.7003 43.9749 78.6942 43.5128C74.8877 46.0351 70.0742 46.0287 66.28 43.5C66.28 43.9813 66.374 44.6551 66.4169 45.1108Z" fill="white"/><path d="M78.6942 43.5128L79.9467 44.1354C79.9472 53 65 52.5 65.0459 44.1354L66.28 43.5M78.6942 43.5128C78.9705 47.8835 75 49 72.5 49C70 49 66.1756 47.8835 66.28 43.5M78.6942 43.5128C78.7003 43.9749 78.6414 44.668 78.6107 45.1108C75.2155 47.2801 69.8244 47.2736 66.4169 45.1108C66.374 44.6551 66.28 43.9813 66.28 43.5M78.6942 43.5128C74.8877 46.0351 70.0742 46.0287 66.28 43.5" stroke="#222221" stroke-linecap="round" stroke-linejoin="round"/></svg>